<?xml version="1.0" encoding="UTF-8" standalone="no"?>
<!DOCTYPE svg PUBLIC "-//W3C//DTD SVG 1.1//EN" "http://www.w3.org/Graphics/SVG/1.1/DTD/svg11.dtd">
<svg width="100%" height="100%" viewBox="0 0 300 287" version="1.1" xmlns="http://www.w3.org/2000/svg" xmlns:xlink="http://www.w3.org/1999/xlink" xml:space="preserve" xmlns:serif="http://www.serif.com/" style="fill-rule:evenodd;clip-rule:evenodd;stroke-linejoin:round;stroke-miterlimit:2;">
    <g transform="matrix(1,0,0,1,-1208.270314,-1174.486997)">
        <g transform="matrix(0.549943,0,0,0.549943,906.322868,941.102967)">
            <g transform="matrix(0.703336,0.703336,-1.272792,1.272792,918.261227,-628.447668)">
                <path d="M890,547.25L890,569.75C890,575.959 880.878,581 869.641,581L535.359,581C524.122,581 515,575.959 515,569.75L515,547.25C515,541.041 524.122,536 535.359,536L869.641,536C880.878,536 890,541.041 890,547.25Z"/>
            </g>
            <g transform="matrix(0.703336,-0.703336,1.272792,1.272792,-503.773998,566.110019)">
                <path d="M890,547.25L890,569.75C890,575.959 880.878,581 869.641,581L535.359,581C524.122,581 515,575.959 515,569.75L515,547.25C515,541.041 524.122,536 535.359,536L869.641,536C880.878,536 890,541.041 890,547.25Z"/>
            </g>
            <g transform="matrix(0.808,0,0,1.644444,373.967584,-10.67764)">
                <path d="M890,547.25L890,569.75C890,575.959 879.741,581 867.104,581L537.896,581C525.259,581 515,575.959 515,569.75L515,547.25C515,541.041 525.259,536 537.896,536L867.104,536C879.741,536 890,541.041 890,547.25Z"/>
            </g>
        </g>
    </g>
</svg>
